<?xml version="1.0" standalone="no"?>
<!DOCTYPE svg PUBLIC "-//W3C//DTD SVG 20010904//EN"
 "http://www.w3.org/TR/2001/REC-SVG-20010904/DTD/svg10.dtd">
<svg version="1.0" xmlns="http://www.w3.org/2000/svg"
 width="1024.000000pt" height="1024.000000pt" viewBox="0 0 1024.000000 1024.000000"
 preserveAspectRatio="xMidYMid meet">

<g transform="translate(0.000000,1024.000000) scale(0.100000,-0.100000)"
fill="#000000" stroke="none">
<path d="M0 5120 l0 -5120 5120 0 5120 0 0 5120 0 5120 -5120 0 -5120 0 0
-5120z m5456 2880 c433 -35 831 -195 1149 -462 336 -281 562 -636 679 -1063
50 -182 69 -327 69 -535 1 -327 -58 -596 -193 -878 -76 -159 -115 -222 -221
-362 -182 -238 -404 -424 -669 -559 -172 -88 -274 -127 -454 -172 -240 -61
-237 -61 -823 -66 l-543 -5 0 -853 c0 -763 -2 -855 -16 -869 -14 -14 -86 -16
-648 -16 -503 0 -636 3 -650 13 -17 12 -18 144 -19 2913 0 1595 3 2906 7 2912
9 16 2139 17 2332 2z" fill="white"/>
<path d="M4450 5949 l0 -860 453 3 c510 5 514 5 683 89 228 114 375 290 459
549 25 75 28 100 28 215 0 87 -5 152 -16 198 -61 250 -234 463 -465 572 -171
82 -278 95 -769 95 l-373 0 0 -861z" fill="white"/>
</g>
</svg>