<?xml version="1.0" encoding="UTF-8"?>
<svg width="1000px" height="1000px" viewBox="0 0 1000 1000" version="1.1" xmlns="http://www.w3.org/2000/svg" xmlns:xlink="http://www.w3.org/1999/xlink">
    <g stroke="none" stroke-width="1" fill="none" fill-rule="evenodd">
        <g id="method-draw-image" fill-rule="nonzero">
            <rect id="svg_2" fill="#000000" x="0" y="0" width="999.281068" height="999.428374"></rect>
            <path d="M450.5056,818 C491.269333,818 532.033067,811.562147 572.7968,798.686441 C613.560533,785.810734 650.427733,766.347458 683.3984,740.29661 C716.369067,714.245763 743.045333,681.30791 763.4272,641.483051 C783.809067,601.658192 794,554.497175 794,500 C794,443.706215 783.809067,395.497175 763.4272,355.372881 C743.045333,315.248588 716.369067,282.310734 683.3984,256.559322 C650.427733,230.80791 613.560533,211.943503 572.7968,199.966102 C532.033067,187.988701 491.269333,182 450.5056,182 L450.5056,182 L232,182 L232,818 L450.5056,818 Z M431.6,740 L320,740 L320,259 L431.6,259 C470,259 505.55,264.244548 538.25,274.733645 C570.95,285.222741 599.15,300.506854 622.85,320.585981 C646.55,340.665109 665,365.689097 678.2,395.657944 C691.4,425.626791 698,460.390654 698,499.949533 C698,537.71028 691.4,571.575078 678.2,601.543925 C665,631.512773 646.55,656.686604 622.85,677.065421 C599.15,697.444237 570.95,713.028037 538.25,723.816822 C505.55,734.605607 470,740 431.6,740 L431.6,740 Z" id="D" stroke="#979797" fill="#F87431"></path>
        </g>
    </g>
</svg>